<?xml version="1.0" encoding="utf-8"?>
<!-- Generator: Adobe Illustrator 15.0.2, SVG Export Plug-In . SVG Version: 6.00 Build 0)  -->
<!DOCTYPE svg PUBLIC "-//W3C//DTD SVG 1.1//EN" "http://www.w3.org/Graphics/SVG/1.1/DTD/svg11.dtd">
<svg version="1.1" id="Layer_1" xmlns="http://www.w3.org/2000/svg" xmlns:xlink="http://www.w3.org/1999/xlink" x="0px" y="0px"
	 width="92.2px" height="144.799px" viewBox="274.2 120 92.2 144.799" enable-background="new 274.2 120 92.2 144.799"
	 xml:space="preserve">
<path d="M323,192.8l-46.399,46.4c-3.2,3.2-3.2,7.2,0,10.399l12.8,12.801c3.2,3.199,7.2,3.199,10.4,0l52-52l0,0l0,0l12.8-12.8
	c2.399-3.2,2.399-7.2,0-10.4l-64.8-64.8c-1.601-1.6-3.2-2.399-4.8-2.399c-1.601,0-4,0.8-4.801,2.399l-12.8,12.801
	c-1.6,1.6-2.399,3.199-2.399,4.8c0,1.6,0.8,4,2.399,4.8L323,192.8z"/>
</svg>
