<?xml version="1.0" encoding="utf-8"?>
<!-- Generator: Adobe Illustrator 15.0.2, SVG Export Plug-In . SVG Version: 6.00 Build 0)  -->
<!DOCTYPE svg PUBLIC "-//W3C//DTD SVG 1.1//EN" "http://www.w3.org/Graphics/SVG/1.1/DTD/svg11.dtd">
<svg version="1.1" id="Layer_1" xmlns="http://www.w3.org/2000/svg" xmlns:xlink="http://www.w3.org/1999/xlink" x="0px" y="0px"
	 width="349.871px" height="30.051px" viewBox="0 0 349.871 30.051" enable-background="new 0 0 349.871 30.051"
	 xml:space="preserve">
<g>
	<defs>
		<rect id="SVGID_1_" width="349.871" height="30.051"/>
	</defs>
	<clipPath id="SVGID_2_">
		<use xlink:href="#SVGID_1_"  overflow="visible"/>
	</clipPath>
	<path clip-path="url(#SVGID_2_)" fill="#F7941D" d="M349.345,14.134c-0.04-2.552-0.283-6.925-6.602-6.925
		c-3.767,0-6.926,1.944-6.926,5.993c0,4.496,2.714,5.265,5.346,6.157c2.634,0.89,5.307,1.498,5.307,4.414
		c0,3.078-2.511,3.604-3.605,3.604c-3.32,0-4.05-2.389-4.05-5.021h-3.402c0,2.228,0.081,7.695,7.452,7.695
		c4.05,0,7.007-2.228,7.007-6.804c0-4.293-2.673-5.225-5.306-6.116c-2.673-0.891-5.346-1.377-5.346-3.929
		c0-3.037,2.43-3.321,3.523-3.321c2.471,0,3.199,1.499,3.199,4.253H349.345z M332.902,19.034v-1.377
		c0-4.657-0.607-10.448-7.25-10.448c-6.682,0-7.734,6.277-7.734,11.704c0,7.452,2.227,11.138,7.532,11.138
		c5.913,0,7.29-5.387,7.29-7.695h-3.401c0,1.621-0.446,5.021-3.687,5.021c-4.171,0-4.171-5.021-4.171-8.343H332.902z
		 M321.603,16.362v-0.812c0-1.295,0.405-5.67,3.969-5.67c2.997,0,3.768,2.876,3.768,5.307v1.175H321.603z M310.588,4.454h3.401
		V0.566h-3.401V4.454z M310.588,29.484h3.401V7.776h-3.401V29.484z M300.099,7.775h-3.159v2.673h3.159v14.985
		c0,2.836,0.85,4.293,4.374,4.293c1.417,0,2.308-0.162,2.754-0.242v-2.795c-0.365,0.041-0.77,0.121-1.499,0.121
		c-1.782,0-2.228-0.688-2.228-2.43V10.448h3.767V7.775H303.5V1.457h-3.401V7.775z M290.217,4.454h3.402V0.566h-3.402V4.454z
		 M290.217,29.484h3.402V7.776h-3.402V29.484z M272.072,29.484h3.402V14.498c0-3.158,2.47-4.373,4.293-4.373
		c3.078,0,3.199,2.713,3.199,4.373v14.986h3.402V14.094c0-2.552,0-6.885-5.711-6.885c-2.105,0-4.373,1.133-5.265,3.118h-0.081V7.775
		h-3.24V29.484z M267.617,7.775h-3.402V22.76c0,3.16-2.469,4.375-4.293,4.375c-3.077,0-3.198-2.714-3.198-4.375V7.775h-3.402v15.39
		c0,2.552,0,6.886,5.71,6.886c2.106,0,4.374-1.135,5.266-3.118h0.08v2.552h3.24V7.775z M225.215,29.484h3.402V14.498
		c0-3.4,2.471-4.373,4.049-4.373c2.795,0,2.916,2.713,2.916,4.373v14.986h3.402V14.498c0-3.4,2.471-4.373,4.051-4.373
		c2.795,0,2.916,2.713,2.916,4.373v14.986h3.401V14.094c0-2.552,0-6.885-5.71-6.885c-2.229,0-4.172,1.538-5.145,3.442
		c-0.688-2.47-2.187-3.442-4.697-3.442c-2.106,0-4.375,1.133-5.266,3.118h-0.08V7.775h-3.24V29.484z M197.595,29.484h3.401V14.498
		c0-3.4,2.471-4.373,4.051-4.373c2.793,0,2.916,2.713,2.916,4.373v14.986h3.401V14.498c0-3.4,2.47-4.373,4.05-4.373
		c2.795,0,2.916,2.713,2.916,4.373v14.986h3.402V14.094c0-2.552,0-6.885-5.711-6.885c-2.227,0-4.171,1.538-5.143,3.442
		c-0.689-2.47-2.188-3.442-4.698-3.442c-2.106,0-4.374,1.133-5.265,3.118h-0.082V7.775h-3.239V29.484z M185.972,27.377
		c-3.483,0-4.173-4.05-4.173-8.748c0-4.697,0.729-8.748,4.173-8.748c3.646,0,4.333,4.051,4.333,8.748
		C190.305,23.327,189.576,27.377,185.972,27.377 M178.235,18.629c0,6.116,1.539,11.422,7.817,11.422
		c6.236,0,7.816-5.306,7.816-11.422c0-6.114-1.539-11.42-7.816-11.42C179.815,7.209,178.235,12.515,178.235,18.629 M172.363,19.562
		c-0.122,3.522-0.729,7.573-5.063,7.573c-4.941,0-5.589-5.428-5.589-12.109c0-6.684,0.648-12.11,5.589-12.11
		c3.686,0,4.739,2.795,4.82,6.076h3.726C175.685,3.321,173.213,0,167.3,0c-7.978,0-9.315,7.735-9.315,15.025
		s1.094,15.025,9.315,15.025c6.318,0,8.465-5.022,8.79-10.489H172.363z"/>
	<path clip-path="url(#SVGID_2_)" fill="#0081C6" d="M14.953,7.695c-0.516-0.111-1.125-0.111-1.877-0.111H9.057
		c0,0,0.003,1.845,0,1.861c-2.544,0.719-9.019,3.102-9.019,3.102V0.081h15.088c5.056,0,7.958,2.24,9.451,5.03
		C24.577,5.111,18.484,6.666,14.953,7.695"/>
	<path clip-path="url(#SVGID_2_)" fill="#0081C6" d="M9.057,27.047c0.003,0.154,0,2.309,0,2.309h-9.02L0,26.426
		C0,26.426,4.07,26.938,9.057,27.047"/>
	<path clip-path="url(#SVGID_2_)" fill="#0081C6" d="M0.037,25.432V13.66c0,0,4.929-1.946,9.02-3.182c0.002,1.829,0,3.051,0,3.051
		h3.485c2.337,0,4.797-0.164,4.797-3.117c0-1.133-0.238-1.712-0.836-2.121c0,0,6.391-1.749,8.551-2.227
		c0.534,1.007,0.814,2.715,0.814,4.021c0,7.093-4.757,10.414-11.481,10.414h-5.33c0,0-0.013,5.529,0,5.529
		C4.809,25.981,0.037,25.432,0.037,25.432"/>
	<path clip-path="url(#SVGID_2_)" fill="#0081C6" d="M46.901,25.949c-0.013,1.093,0.268,2.364,0.961,3.405h-8.281
		c-0.205-0.573-0.328-1.435-0.287-2.009h-0.082c-1.723,1.968-4.224,2.542-6.847,2.542c-2.842,0-5.239-0.797-6.51-2.866
		C25.855,27.021,35.758,26.888,46.901,25.949"/>
	<path clip-path="url(#SVGID_2_)" fill="#0081C6" d="M39.088,19.803c-0.984,0.492-2.09,0.779-3.198,1.023
		c-1.804,0.41-2.747,0.862-2.747,2.297c0,0.984,1.066,1.969,2.542,1.969c1.845,0,3.28-1.107,3.403-3.321V19.803z M25.337,26.067
		c-0.339-0.778-0.476-1.568-0.476-2.617c0-6.723,7.872-6.478,12.014-7.257c1.106-0.205,2.213-0.533,2.213-1.885
		c0-1.436-1.353-1.969-2.665-1.969c-2.501,0-2.993,1.271-3.034,2.174h-7.544c0.246-5.986,5.904-6.971,10.948-6.971
		c10.168,0,10.086,4.223,10.086,8.322V24.6c0,0.139-0.012,0.336,0.012,0.315C38.898,25.686,25.337,26.067,25.337,26.067"/>
	<path clip-path="url(#SVGID_2_)" fill="#0081C6" d="M56.955,25.114c0.013,0.922-0.018,4.241-0.018,4.241h-8.118l0.024-3.604
		C48.843,25.751,52.218,25.552,56.955,25.114"/>
	<path clip-path="url(#SVGID_2_)" fill="#0081C6" d="M48.843,24.717L48.82,8.075h7.79v3.404h0.082
		c1.312-2.542,3.034-3.937,5.986-3.937c0.091,0,0.272,0.004,0.272,0.004l0.009,7.013c0,0-0.68-0.046-1.101-0.046
		c-3.199,0-4.92,1.886-4.92,6.436c0,0,0.014,3.179,0.017,3.131C52.421,24.533,48.843,24.717,48.843,24.717"/>
	<path clip-path="url(#SVGID_2_)" fill="#0081C6" d="M70.998,23.643c0.659,0.686,1.528,1.039,2.792,1.039
		c1.311,0,2.747-0.493,3.403-1.518h7.585c-1.641,4.592-6.109,6.725-10.947,6.725c-4.757,0-8.608-1.807-10.548-5.411
		C63.283,24.478,67.51,24.067,70.998,23.643"/>
	<path clip-path="url(#SVGID_2_)" fill="#0081C6" d="M77.438,16.317c0-1.968-1.476-3.567-3.567-3.567
		c-2.419,0-3.814,1.271-4.182,3.567H77.438z M62.805,23.523c-0.619-1.401-0.907-2.922-0.907-4.746
		c0-6.192,4.511-11.234,11.235-11.234c8.446,0,12.095,4.714,12.095,12.998h-15.58c0.074,0.864,0.224,1.347,0.673,2.188
		C65.872,23.201,62.805,23.523,62.805,23.523"/>
	<path clip-path="url(#SVGID_2_)" fill="#0081C6" d="M101.346,18.672c0-2.501-0.686-5.226-3.598-5.226
		c-2.911,0-3.567,2.747-3.567,5.248c0,0.373,0.013,0.641,0.046,1.012l-7.953,1.112c-0.118-0.761-0.21-1.451-0.21-2.206
		c0-5.001,1.927-11.069,9.06-11.069c2.419,0,4.592,1.065,5.823,2.869h0.082V0.081h8.118v17.357L101.346,18.672z"/>
	<path clip-path="url(#SVGID_2_)" fill="#0081C6" d="M109.146,18.434v10.922h-7.831v-2.337h-0.082
		c-1.026,1.353-2.255,2.87-6.233,2.87c-4.905,0-7.68-3.735-8.568-8.075l7.914-1.113c0.316,1.858,1.206,3.284,3.402,3.284
		c2.595,0,3.493-2.083,3.636-4.358L109.146,18.434z"/>
</g>
<rect x="110.946" y="0.065" fill="#0081C6" width="8.118" height="5.699"/>
<polygon fill="#0081C6" points="119.063,16.763 119.063,29.34 110.945,29.34 110.945,18.155 "/>
<polygon fill="#0081C6" points="110.935,17.199 110.93,8.013 119.047,8.013 119.047,15.808 "/>
<g>
	<defs>
		<rect id="SVGID_3_" width="349.871" height="30.051"/>
	</defs>
	<clipPath id="SVGID_4_">
		<use xlink:href="#SVGID_3_"  overflow="visible"/>
	</clipPath>
	<path clip-path="url(#SVGID_4_)" fill="#0081C6" d="M129.865,14.814c-0.726,0.659-0.884,1.618-0.884,3.02v11.521h-8.118
		l0.015-12.911L129.865,14.814z"/>
	<path clip-path="url(#SVGID_4_)" fill="#0081C6" d="M154.207,9.604c1.375,1.417,1.835,3.236,1.835,5.155v14.595h-8.118V17.834
		c0-2.01-0.205-3.812-2.665-3.812c-2.05,0-2.747,1.599-2.747,3.812v11.521h-8.119V17.834c0-1.754-0.147-3.238-1.824-3.616
		C132.569,14.218,147.082,11.312,154.207,9.604"/>
	<path clip-path="url(#SVGID_4_)" fill="#0081C6" d="M120.878,15.45l-0.015-7.375h7.831v2.83h0.083
		c1.64-2.46,4.018-3.363,6.969-3.363c2.297,0,4.757,1.19,5.74,3.322c0.329-0.246,1.969-3.322,7.258-3.322
		c1.981,0,3.45,0.535,4.509,1.228C144.027,11.285,120.878,15.45,120.878,15.45"/>
</g>
</svg>
