<?xml version="1.0" encoding="utf-8"?>
<!-- Generator: Adobe Illustrator 15.0.2, SVG Export Plug-In . SVG Version: 6.00 Build 0)  -->
<!DOCTYPE svg PUBLIC "-//W3C//DTD SVG 1.1//EN" "http://www.w3.org/Graphics/SVG/1.1/DTD/svg11.dtd">
<svg version="1.1" id="Layer_1" xmlns="http://www.w3.org/2000/svg" xmlns:xlink="http://www.w3.org/1999/xlink" x="0px" y="0px"
	 width="92.2px" height="144.799px" viewBox="274.2 120 92.2 144.799" enable-background="new 274.2 120 92.2 144.799"
	 xml:space="preserve">
<path d="M317.6,192l46.4-46.4c3.2-3.2,3.2-7.2,0-10.4l-12.8-12.8c-3.2-3.2-7.2-3.2-10.4,0l-52,52l0,0l0,0L276,187.2
	c-2.4,3.2-2.4,7.2,0,10.4l64.8,64.8c1.601,1.6,3.2,2.399,4.8,2.399c1.601,0,4-0.8,4.801-2.399l12.8-12.801
	c1.6-1.6,2.399-3.199,2.399-4.8c0-1.6-0.8-4-2.399-4.8L317.6,192z"/>
</svg>
