<?xml version="1.0" encoding="utf-8"?>
<!-- Generator: Adobe Illustrator 15.0.0, SVG Export Plug-In . SVG Version: 6.00 Build 0)  -->
<!DOCTYPE svg PUBLIC "-//W3C//DTD SVG 1.1//EN" "http://www.w3.org/Graphics/SVG/1.1/DTD/svg11.dtd">
<svg version="1.1" id="Layer_1" xmlns="http://www.w3.org/2000/svg" xmlns:xlink="http://www.w3.org/1999/xlink" x="0px" y="0px"
	 width="50.4px" height="50.4px" viewBox="0 0 50.4 50.4" enable-background="new 0 0 50.4 50.4" xml:space="preserve">
<g>
	<path fill="#FFFFFF" d="M50.323,48.348V0H0v50.4h50.323v-1.889l0.077-0.053L50.323,48.348z M2.663,48.4l10.921-16.478l5.613,9.364
		L14.292,48.4H2.663z M16.721,48.4l15.604-22.624L47.931,48.4H16.721z M48.323,45.447L32.325,22.254l-11.88,17.224l-6.776-11.304
		L2,45.781V2h46.323V45.447z"/>
	<path fill="#FFFFFF" d="M18.897,20.165c3.051,0,5.534-2.486,5.534-5.542s-2.483-5.542-5.534-5.542s-5.534,2.486-5.534,5.542
		S15.846,20.165,18.897,20.165z M18.897,10.731c2.142,0,3.884,1.746,3.884,3.892s-1.742,3.892-3.884,3.892s-3.884-1.746-3.884-3.892
		S16.756,10.731,18.897,10.731z"/>
</g>
</svg>
